<svg xmlns="http://www.w3.org/2000/svg" viewBox="0 0 367.92 375.44"><defs><style>.cls-1{isolation:isolate;}.cls-2{fill:#f7f7f7;}.cls-3{fill:#f2cd27;}.cls-4{fill:#e9ba8e;}.cls-5{fill:#f5d451;}.cls-6{fill:#c27f43;}.cls-7{fill:#e7ddd1;}.cls-16,.cls-7{mix-blend-mode:multiply;}.cls-8{fill:#e2a559;}.cls-9{fill:#f3dbc8;opacity:0.5;mix-blend-mode:soft-light;}.cls-10{fill:#ececec;}.cls-11{fill:#654524;}.cls-12{fill:none;stroke:#654524;stroke-linecap:round;stroke-linejoin:round;stroke-width:1.72px;}.cls-13{fill:#205658;}.cls-14{fill:#cf9c75;}.cls-15{fill:#fff;}.cls-16{fill:#d2c8c7;}.cls-17{fill:#231a1f;}.cls-18{fill:#e1a38e;}.cls-19{fill:#2699a5;}.cls-20{fill:#60a9ac;}</style></defs><title>avatar</title><g class="cls-1"><g id="Capa_2" data-name="Capa 2"><rect class="cls-2" width="367.92" height="375.44"/><rect class="cls-3" x="166.66" y="359.59" width="88.46" height="15.85"/></g><g id="Capa_1" data-name="Capa 1"><path class="cls-4" d="M123,90.78s-22.67,79.63-18.85,87.58c7.14,14.81,34.23,40.76,34.23,40.76l18.22-15.29-28.93-33.47,5.84-74.66Z" transform="translate(0)"/><path class="cls-5" d="M151.91,192.69c18.65,17.18,42.2,43.41,45.38,47.12,11.83,13.81-16.8,24.84-25.35,16.95-4.44-4.09-20.53-20.59-40.44-39.63Z" transform="translate(0)"/><path class="cls-4" d="M120.12,69c-1.44,7.35,2.9,21.78,2.9,21.78l10.51,4.92s7.17-11.51,8.32-17.39C142.63,74.32,121.56,61.64,120.12,69Z" transform="translate(0)"/><polygon class="cls-6" points="86.93 258.92 164.33 235.56 114.03 51.73 36.65 75.09 86.93 258.92"/><polygon class="cls-7" points="80.67 121.5 105.03 114.15 89.95 58.99 65.59 66.35 80.67 121.5"/><polygon class="cls-8" points="164.33 235.56 307.07 192.47 256.8 8.63 114.03 51.73 164.33 235.56"/><polygon class="cls-9" points="299.52 186.97 253.18 17.53 121.6 57.24 299.52 186.97"/><polygon class="cls-10" points="78.1 120.06 101.63 112.96 87.1 59.85 63.58 66.95 78.1 120.06"/><polygon class="cls-11" points="161.31 183.9 214.01 167.99 211.62 159.27 158.93 175.17 161.31 183.9"/><polygon class="cls-11" points="165.84 200.46 201.5 189.69 199.12 180.98 163.46 191.74 165.84 200.46"/><polygon class="cls-12" points="172.72 218.65 185.34 214.84 181.65 201.35 169.03 205.16 172.72 218.65"/><polygon class="cls-12" points="192.12 212.79 204.72 208.99 201.03 195.5 188.43 199.3 192.12 212.79"/><path class="cls-13" d="M164,119.58s-8.67-6.25-13.2-10.17c-13.15-9-31.35-5.26-31.35-5.26s-.27,5.64,13.73,13C146.27,124,164,119.58,164,119.58Z" transform="translate(0)"/><path class="cls-4" d="M181.38,256.25c10.8,0,40.46-27.05,40.46-27.05s-5.82-19,4.75-35.5c1.07-1.69-6.44-1.29-15.33.32-.68.16-1.45.24-2.14.4H209c-3.61.73-7.36,1.62-10.73,2.66h-.16c-7.5,2.18-13.25,5-12.1,7.65.3.8.69,1.61,1,2.33a.6.6,0,0,1,.16.33c3.75,8.61,7.12,15.69,4,19.63a8.09,8.09,0,0,1-3.29,2.18C184.14,229.92,170.57,256.25,181.38,256.25Z" transform="translate(0)"/><path class="cls-14" d="M186.13,204.73a24.17,24.17,0,0,1,.84,2.33.6.6,0,0,1,.16.33c3.75,8.61,7.12,15.69,4,19.63a36.79,36.79,0,0,0,15.17-12.87c4.06-6,4.75-13,5-20.13-.68.16-1.45.24-2.14.4H209c-3.68.73-7.36,1.69-10.73,2.66h-.16C190.65,199.34,185,202.07,186.13,204.73Z" transform="translate(0)"/><path class="cls-3" d="M166.44,370.07a91.9,91.9,0,0,0,20.49,4.76c20.1,2.22,39.12-1.81,57.78-9.2,3.6-1.43,7.19-2.9,10.77-4.36,1.44-46.24,1.52-110.8-8.81-118.95s-24.83-13.12-24.83-13.12-5.81,6.25-21.13,6.25c-11.5,0-12.89-6.25-12.89-6.25S166,231.53,166,320.8C167,336.43,166.87,354.39,166.44,370.07Z" transform="translate(0)"/><path class="cls-4" d="M154.89,165.58c1.71,42.18,17.61,50.17,36,50.17,16.34,0,43.85-8.26,43.85-53.71,0-46.63,9.08-81.22-33.48-81.22C146.49,80.82,153,119,154.89,165.58Z" transform="translate(0)"/><path class="cls-15" d="M174.63,182a13.9,13.9,0,0,0,12.15,8.64c6.88.51,10.89-8.87,10.89-8.87Z" transform="translate(0)"/><path class="cls-14" d="M174.63,182c1.4,3.56,3.84,11.91,12.54,11.38,6.85-.41,9.71-8,10.5-11.61,0,0-2.65,8.76-11.52,8.9C179.38,190.78,174.63,182,174.63,182Z" transform="translate(0)"/><path class="cls-16" d="M182.49,166.71c0,.88,2.21,2.39,6.19,2.39s4.41-7.06,4.41-7.06a4.4,4.4,0,0,1-4.41,3.9C184.7,165.94,182.49,165.84,182.49,166.71Z" transform="translate(0)"/><path class="cls-17" d="M161.14,148.42a3.86,3.86,0,1,0,3.85-4.14A4,4,0,0,0,161.14,148.42Z" transform="translate(0)"/><path class="cls-15" d="M162.8,146.88a1.44,1.44,0,1,0,1.44-1.55A1.49,1.49,0,0,0,162.8,146.88Z" transform="translate(0)"/><path class="cls-18" d="M156.15,159.74c0,1.83,3.52,3.32,7.85,3.32s7.86-1.49,7.86-3.32-3.51-3.33-7.86-3.33S156.15,157.9,156.15,159.74Z" transform="translate(0)"/><path class="cls-17" d="M213,148.42a3.86,3.86,0,1,1-3.85-4.14A4,4,0,0,1,213,148.42Z" transform="translate(0)"/><path class="cls-15" d="M211.32,146.88a1.44,1.44,0,1,1-1.44-1.55A1.5,1.5,0,0,1,211.32,146.88Z" transform="translate(0)"/><path class="cls-17" d="M216,131.2a18.79,18.79,0,0,0-4.42-2.1c-1.64-.29-3.35-1-5-.59a8.3,8.3,0,0,0-2.35.64l-1.86,1.27c-1.15.73,1,2.71,1.55,2.63a11.51,11.51,0,0,1,3.19-.56,14.66,14.66,0,0,1,3.91-.36,16.1,16.1,0,0,1,4,1.05C216.29,133.64,217.34,131.92,216,131.2Z" transform="translate(0)"/><path class="cls-17" d="M159,131.2a18.87,18.87,0,0,1,4.43-2.1c1.64-.29,3.34-1,5-.59a8.23,8.23,0,0,1,2.34.64c.66.45,1.28.88,1.87,1.27,1.15.73-1,2.71-1.55,2.63a11.58,11.58,0,0,0-3.19-.56,14.66,14.66,0,0,0-3.91-.36,16.17,16.17,0,0,0-4,1.05C158.68,133.64,157.64,131.92,159,131.2Z" transform="translate(0)"/><path class="cls-18" d="M218,159.74c0,1.83-3.51,3.32-7.85,3.32s-7.86-1.49-7.86-3.32,3.52-3.33,7.86-3.33S218,157.9,218,159.74Z" transform="translate(0)"/><path class="cls-17" d="M153.73,138.72s-6.82-28.78-.1-48.41,24-24.77,39.46-25.4,38.3.24,42.42,11.58c23.48-5.36,13.57,77.58,13.57,77.58s-10.93-10.38-23.06-14c10.93-30-19.72-32.72-49.5-30.88C154.89,110.52,153.73,138.72,153.73,138.72Z" transform="translate(0)"/><path class="cls-4" d="M250.43,159.75c-.05,7.3-6.07,19.78-16,16.84-7.19-2.14-11-6.23-11-14.23s7.43.8,10.23-6.62C237.89,144.7,250.52,148.94,250.43,159.75Z" transform="translate(0)"/><path class="cls-17" d="M235.51,156.41c1.93-4.39,6.54-12.13,13.57-2.34,1-10.12-4.27-18.57-5.31-26.12-4-28.87-4.46-2-17.75,12.11,11.87,6.94,1.78,21.24,1.78,21.24l4.09,4.28S235,160.07,235.51,156.41Z" transform="translate(0)"/><path class="cls-19" d="M166.22,116.67c29.45,1,86.65.46,86.65-1.55,0-39.87-19.36-53.74-52.16-53.74-30.75,0-49.16,5.31-51.35,45.27C149.22,109.31,156.48,111.35,166.22,116.67Z" transform="translate(0)"/><path class="cls-20" d="M154.81,114.46c12.57,10.25,38.28,10.48,47.17,8.8,12.5-2.37,14.63-6.2,14.63-6.2s-34.87-9.46-56.93-12.77c-27.78-4.17-40.23-.14-40.23-.14S141.09,103.29,154.81,114.46Z" transform="translate(0)"/><path class="cls-4" d="M128,55.61c.81,3.62,5.23,2,4.84-1-.47-3.68-1.12-9.82-2.09-14.67-.78-3.92-6.81-2.32-6.06,1.52S127,51.39,128,55.61Z" transform="translate(0)"/><path class="cls-4" d="M122.2,55.52c.74,3.27,5.18,1.7,4.83-1-.41-3.34-.93-8.91-1.81-13.29-.7-3.55-6.75-2-6,1.49S121.33,51.71,122.2,55.52Z" transform="translate(0)"/><path class="cls-4" d="M117.18,55.38c.65,2.9,4.46,1.54,4.15-.85-.37-3-.86-7.87-1.63-11.76-.63-3.14-5.81-1.79-5.2,1.28S116.41,52,117.18,55.38Z" transform="translate(0)"/><path class="cls-4" d="M133.3,53.09c.75,3.27,5.18,1.7,4.84-1-.41-3.34-.94-8.9-1.81-13.29-.71-3.55-6.75-2-6.07,1.48S132.43,49.27,133.3,53.09Z" transform="translate(0)"/><path class="cls-4" d="M98.7,255.57s46.61,79.15,61.94,85.53c9.71,4,70.56-54,70.56-54l-11.55-20.33-57.09,50.51-58.82-77.6-12.17-8.52-6.63,23Z" transform="translate(0)"/><path class="cls-5" d="M189.38,293.55s27.67-39.41,33.08-45.3c12.28-13.37,30.32-1.7,25.66,15.48-1.62,6-37.76,50.7-37.76,50.7Z" transform="translate(0)"/><path class="cls-4" d="M77.83,243.74c-3.46.75-2,5.44.8,5.12,3.51-.4,9.37-.9,14-1.77,3.76-.7,2.42-7.08-1.25-6.4S81.88,242.87,77.83,243.74Z" transform="translate(0)"/><path class="cls-4" d="M78.1,237.67c-3.14.69-1.78,5.4.79,5.11,3.19-.33,8.5-.72,12.71-1.51,3.39-.63,2.09-7-1.25-6.4S81.75,236.87,78.1,237.67Z" transform="translate(0)"/><path class="cls-4" d="M78.37,232.41c-2.78.6-1.59,4.63.69,4.38,2.82-.3,7.52-.67,11.24-1.36,3-.56,1.88-6-1.07-5.5S81.62,231.7,78.37,232.41Z" transform="translate(0)"/><path class="cls-4" d="M80.08,249.41c-3.14.68-1.77,5.38.79,5.11,3.2-.34,8.5-.73,12.71-1.52,3.4-.63,2.08-7-1.25-6.4S83.73,248.6,80.08,249.41Z" transform="translate(0)"/></g></g></svg>